<svg xmlns="http://www.w3.org/2000/svg" viewBox="0 0 560 520">
<defs>
	<radialGradient id="charlore-bell" cx="38%" cy="20%" r="84%">
		<stop stop-color="#fff"></stop>
		<stop offset=".28" stop-color="#fffbe1"></stop>
		<stop offset=".57" stop-color="#d9edf0"></stop>
		<stop offset=".79" stop-color="#d5dcf3"></stop>
		<stop offset="1" stop-color="#f3c5d0"></stop>
	</radialGradient>
	<linearGradient id="charlore-tentacle-a" x2="1" y2="1">
		<stop stop-color="#fffbe6"></stop>
		<stop offset=".34" stop-color="#d7eef0"></stop>
		<stop offset=".72" stop-color="#a6d2eb"></stop>
		<stop offset="1" stop-color="#e7c8dc"></stop>
	</linearGradient>
	<linearGradient id="charlore-tentacle-b" x2=".8" y2="1">
		<stop stop-color="#fff"></stop>
		<stop offset=".32" stop-color="#f6dce7"></stop>
		<stop offset=".66" stop-color="#c0dce8"></stop>
		<stop offset="1" stop-color="#86c8c8"></stop>
	</linearGradient>
	<linearGradient id="charlore-tentacle-c" x2="1" y2="1">
		<stop stop-color="#fff8d9"></stop>
		<stop offset=".38" stop-color="#e5e4f4"></stop>
		<stop offset=".7" stop-color="#b5dbea"></stop>
		<stop offset="1" stop-color="#f1bdca"></stop>
	</linearGradient>
	<filter id="charlore-soft" x="-30%" y="-20%" width="160%" height="170%">
		<feGaussianBlur stdDeviation="3.4" result="blurred"></feGaussianBlur>
		<feMerge>
			<feMergeNode in="blurred"></feMergeNode>
			<feMergeNode in="SourceGraphic"></feMergeNode>
		</feMerge>
	</filter>
	<filter id="charlore-organic" x="-20%" y="-20%" width="140%" height="150%">
		<feTurbulence baseFrequency=".009 .021" numOctaves="2" seed="12" result="noise"></feTurbulence>
		<feDisplacementMap in="SourceGraphic" in2="noise" scale="3.5"></feDisplacementMap>
	</filter>
</defs>

<!-- 六条触手：外、中、内各一对，姿态互相呼应但不机械镜像。 -->
<g filter="url(#charlore-soft)" stroke="#fff" stroke-opacity=".82" stroke-width="3.2" stroke-linejoin="round">
	<path d="M142 247C112 273 74 277 45 307c-25 26-29 59-9 68 20 8 35-17 47-36 15-24 43-18 72-51 15-17 19-32 18-43-10 3-21 3-31 2Z" fill="url(#charlore-tentacle-a)"></path>
	<path d="M191 257c-22 36-53 57-67 99-13 41 3 77 25 78 22 1 29-33 21-54-10-30 30-68 42-116-7-5-14-7-21-7Z" fill="url(#charlore-tentacle-b)"></path>
	<path d="M245 264c-9 48-30 86-24 139 5 48 31 78 52 69 19-9 9-42-2-62-15-28 14-91 5-146-10 2-21 2-31 0Z" fill="url(#charlore-tentacle-c)"></path>
	<path d="M306 263c12 47-7 91 10 136 16 43 45 65 63 51 18-15-3-43-20-60-22-23 10-80-18-132-11 3-23 5-35 5Z" fill="url(#charlore-tentacle-c)"></path>
	<path d="M361 254c22 34 15 69 47 98 30 27 65 26 73 7 7-20-26-27-46-39-28-17-18-53-35-76-13 5-26 8-39 10Z" fill="url(#charlore-tentacle-b)"></path>
	<path d="M409 241c30 24 46 50 79 61 31 10 58-5 53-25-5-19-35-12-56-14-28-2-35-22-46-36-9 5-19 10-30 14Z" fill="url(#charlore-tentacle-a)"></path>
</g>
<g fill="none" stroke="#5e9cae" stroke-opacity=".3" stroke-width="2.2" stroke-linecap="round">
	<path d="M51 350c29-43 70-35 99-91"></path>
	<path d="M146 410c-14-57 45-95 53-143"></path>
	<path d="M258 449c-30-62 12-126 1-174"></path>
	<path d="M356 429c-34-55-1-111-31-157"></path>
	<path d="M461 345c-50-16-48-65-80-83"></path>
	<path d="M513 284c-53 7-69-28-91-39"></path>
</g>
<g filter="url(#charlore-organic)">
	<path d="M112 250C114 129 181 62 280 60c102-2 168 70 169 190-81 43-256 45-337 0Z" fill="url(#charlore-bell)" stroke="rgba(255,255,255,.96)" stroke-width="6"></path>
	<path d="M131 221c17-80 71-135 148-138 69-3 122 36 146 112-72-42-220-44-294 26Z" fill="rgba(255,255,255,.26)"></path>
	<path d="M126 244c77 31 232 30 307 0" fill="none" stroke="#5597aa" stroke-opacity=".42" stroke-width="4.5" stroke-linecap="round"></path>
	<path d="M151 186c10-49 35-81 71-100M405 184c-13-44-38-75-73-98" fill="none" stroke="rgba(255,255,255,.72)" stroke-width="10" stroke-linecap="round"></path>
	<path d="M151 176c21 11 42 7 60-9" fill="none" stroke="#f2b6b6" stroke-opacity=".34" stroke-width="22" stroke-linecap="round"></path>
	<path d="M351 169c19 15 38 16 59 2" fill="none" stroke="#f1c4a4" stroke-opacity=".32" stroke-width="20" stroke-linecap="round"></path>
</g>
<g fill="#36505d">
	<circle cx="244" cy="178" r="6"></circle>
	<circle cx="320" cy="178" r="6"></circle>
</g>
<path d="M265 201c11 13 24 13 35 0" fill="none" stroke="#36505d" stroke-width="4.5" stroke-linecap="round"></path>
<g fill="#f2b6b6" opacity=".48">
	<ellipse cx="216" cy="201" rx="16" ry="6"></ellipse>
	<ellipse cx="347" cy="201" rx="16" ry="6"></ellipse>
</g>
<g fill="rgba(255,255,255,.91)">
	<ellipse cx="193" cy="118" rx="8" ry="15" transform="rotate(35 193 118)"></ellipse>
	<circle cx="367" cy="112" r="4"></circle>
</g>
		</svg>
